<?xml version="1.0" encoding="UTF-8"?>
<!-- Generator: visioncortex VTracer 0.6.3 -->
<svg version="1.1" xmlns="http://www.w3.org/2000/svg" width="1280" height="959">
<path d="M0 0 C25.48 19.89 30.08 67.61 34.6 96.82 C34.98 99.17 34.98 99.17 36 102 C36.5 101.17 36.99 100.33 37.5 99.47 C54.55 71.24 82.03 43.62 114.81 34.94 C121.81 33.26 128.69 32.53 135.88 32.44 C136.7 32.42 137.53 32.41 138.38 32.39 C143.7 32.49 146.78 33.5 151 37 C154.7 41.6 155.21 46.64 154.86 52.35 C152.84 66.33 141.53 76.48 132 86 C130.7 87.35 130.7 87.35 129.38 88.73 C114.81 103.81 97.44 115.5 80 127 C78.77 127.82 77.54 128.65 76.3 129.47 C69.65 133.93 62.99 138.32 56.17 142.53 C55.46 143.01 54.74 143.5 54 144 C53.46 144.36 52.91 144.72 52.35 145.09 C50.17 148.17 50.87 151.42 51.17 155.01 C51.22 155.84 51.28 156.67 51.34 157.52 C51.54 160.35 51.77 163.17 52 166 C52.08 167.01 52.16 168.03 52.24 169.07 C52.88 177.01 53.59 184.94 54.31 192.88 C54.42 194.08 54.53 195.29 54.65 196.54 C55.4 224.96 55.4 224.96 62 252 C62.78 251.36 63.57 250.72 64.38 250.06 C68.33 246.95 70.75 246.66 75.68 246.71 C79.25 247.15 81.33 248.66 84 251 C85.78 253.67 86 254.74 86 258 C86.7 258.02 87.4 258.04 88.12 258.06 C92.35 259.44 94.52 262.41 97 266 C98.86 271.59 98.36 276.29 96.5 281.75 C95.17 285.74 94.9 288.98 95.06 293.19 C95.17 298.63 94.63 301.89 91 306 C86.62 310.53 82.4 314.89 76 316 C73.67 316.02 71.33 316.02 69 316 C69.22 317.75 69.22 317.75 69.44 319.54 C69.63 321.09 69.81 322.64 70 324.19 C70.14 325.34 70.14 325.34 70.29 326.52 C70.75 330.37 71.12 334.11 71 338 C69 338.04 67 338.04 65 338 C63.23 336.23 63.6 333.65 63.39 331.25 C63.28 330.02 63.16 328.79 63.05 327.52 C62.99 326.86 62.93 326.2 62.87 325.52 C61.4 308.92 59.4 292.41 57.26 275.89 C56.91 273.18 56.57 270.47 56.22 267.76 C54.7 255.81 53.15 243.88 51.38 231.97 C49.94 222.16 48.98 212.32 48.12 202.44 C47.87 199.6 47.62 196.77 47.36 193.93 C44.87 166.06 44.87 166.06 44.62 152.88 C44.59 152.08 44.55 151.28 44.51 150.46 C44.45 146.6 44.57 144.61 46.84 141.41 C51.41 137.93 56.13 134.76 60.94 131.62 C63.1 130.2 65.26 128.77 67.42 127.34 C68.52 126.62 69.61 125.9 70.74 125.16 C90.32 112.21 90.32 112.21 109 98 C109.54 97.56 110.09 97.11 110.65 96.66 C135.11 77.65 135.11 77.65 148 51 C147.97 47.47 147.92 44.19 145.69 41.3 C140.93 37.64 130.73 39.47 125 40 C102.73 43.21 85.34 56.08 69.2 70.99 C67.33 72.7 65.41 74.29 63.44 75.88 C49.96 87.43 41.51 104.24 34 120 C33.01 120 32.02 120 31 120 C30.89 119.27 30.78 118.54 30.66 117.78 C30.31 115.52 29.96 113.26 29.62 111 C29.2 108.28 28.78 105.56 28.37 102.85 C23.6 71.53 18.41 40.76 2.57 12.84 C1 10 1 10 0 7 C-2.85 6.23 -2.85 6.23 -6 6 C-9.15 8.25 -9.97 11.16 -11.12 14.75 C-11.62 16.26 -11.62 16.26 -12.13 17.8 C-18.85 42.59 -11.73 68.78 0.55 90.53 C8.69 104.57 8.69 104.57 19 117 C19 117.99 19 118.98 19 120 C11.59 119.39 4.79 117.31 -2.31 115.19 C-10.72 112.73 -19.11 110.35 -27.69 108.56 C-28.41 108.41 -29.13 108.26 -29.87 108.1 C-47 104.7 -67.14 103.56 -82.34 113.54 C-84.65 115.27 -86.83 117.08 -89 119 C-89.7 119.62 -90.41 120.24 -91.13 120.88 C-101.44 130.56 -106.95 143.06 -107.5 157.25 C-107.08 166.76 -103.7 173.34 -96.73 179.77 C-75.9 196.76 -49.99 201.35 -24 205 C-24 205.99 -24 206.98 -24 208 C-26.71 209.35 -29.01 209.07 -32 209 C-31.96 210.39 -31.96 210.39 -31.92 211.81 C-31.63 226.85 -32.99 241.78 -34.2 256.75 C-34.73 263.38 -35.25 270.01 -35.76 276.64 C-35.82 277.36 -35.87 278.07 -35.93 278.81 C-36.96 291.99 -37.8 305.17 -38.37 318.38 C-38.45 320.21 -38.45 320.21 -38.54 322.08 C-38.58 323.09 -38.63 324.11 -38.67 325.15 C-39.04 328.31 -39.9 331.03 -41 334 C-42.32 334 -43.64 334 -45 334 C-45.89 329.57 -46.01 325.67 -45.69 321.17 C-45.64 320.51 -45.6 319.85 -45.55 319.18 C-45.4 317.01 -45.24 314.85 -45.07 312.69 C-44.96 311.16 -44.86 309.64 -44.75 308.11 C-44.52 304.9 -44.29 301.69 -44.05 298.48 C-43.75 294.43 -43.46 290.39 -43.17 286.35 C-42.1 271.33 -40.97 256.32 -39.62 241.32 C-38.99 234.24 -38.6 227.17 -38.38 220.06 C-38.34 218.97 -38.3 217.89 -38.26 216.76 C-38.17 214.18 -38.08 211.59 -38 209 C-39.29 208.88 -40.58 208.76 -41.9 208.64 C-64.77 206.08 -90.19 197.47 -106 180 C-112.66 170.88 -115.03 162.24 -114 151 C-110.96 133.84 -102.47 120.3 -88.69 109.69 C-70.28 97.02 -49.17 97.49 -28.02 101.37 C-18.75 103.3 -9.62 105.88 -0.5 108.41 C2.06 109.12 2.06 109.12 5 109 C4.53 108.4 4.05 107.81 3.57 107.19 C-6.45 94.05 -13.08 79.71 -18 64 C-18.54 62.27 -18.54 62.27 -19.1 60.51 C-23.53 43.28 -23.16 21.26 -14.64 5.52 C-10.85 -0.32 -6.96 -2.15 0 0 Z M65 258 C60.33 266.01 63.54 277.71 64.65 286.5 C64.94 288.76 65.22 291.01 65.49 293.27 C66.5 301.67 66.5 301.67 68 310 C74.42 310.7 77.84 309.55 83.01 305.68 C85.93 303.21 87.5 301.58 89 298 C89.14 294.71 89.06 291.47 88.94 288.19 C89 285.2 89.35 283.34 90.5 280.62 C92.13 276.69 92.48 274.21 92 270 C90.2 265.83 88.06 263.98 84 262 C83.34 262 82.68 262 82 262 C81.71 260.89 81.42 259.77 81.12 258.62 C80.31 255 80.31 255 78 253 C71.67 252.27 69.03 252.67 65 258 Z " fill="#000100" transform="translate(618,307)"/>
<path d="M0 0 C2 3 2 3 2 5.62 C-3.51 24.22 -25.08 37.86 -41 47 C-57.26 55.75 -57.26 55.75 -66 54 C-67.28 50.16 -66.54 49.22 -64.81 45.62 C-60.8 37.92 -55.16 32.06 -49 26 C-48.18 25.19 -47.37 24.37 -46.53 23.53 C-34.74 12.35 -16.9 -1.07 0 0 Z " fill="#000100" transform="translate(727,374)"/>
<path d="M0 0 C12.75 10.05 17.11 30.21 19.36 45.41 C19.78 49.27 19.99 53.12 20 57 C18.68 57.66 17.36 58.32 16 59 C10.73 53.48 6.89 47.85 3.44 41.06 C2.97 40.15 2.5 39.24 2.01 38.3 C-11.05 12.4 -11.05 12.4 -8.19 2.06 C-6.01 -1.72 -3.85 -1.14 0 0 Z " fill="#000100" transform="translate(625,365)"/>
<path d="M0 0 C3.19 0.44 3.19 0.44 6.06 2.62 C8.19 5.44 8.19 5.44 8.75 8.06 C8.19 10.44 8.19 10.44 6.62 12.31 C3.1 13.94 0.88 13.45 -2.81 12.44 C-4.81 10.75 -4.81 10.75 -5.81 8.44 C-5.53 3.69 -5.13 0.8 0 0 Z " fill="#000100" transform="translate(585.8125,424.5625)"/>
<path d="M0 0 C2.31 0.19 2.31 0.19 4 1 C2.05 6.64 0.44 9.05 -5 12 C-8.47 13.16 -11.36 13.07 -15 13 C-15.38 11.34 -15.71 9.68 -16 8 C-14.41 6.41 -12.44 6.57 -10.25 6.25 C-5.36 5.35 -3.38 3.68 0 0 Z " fill="#000100" transform="translate(551,475)"/>
</svg>
